<svg width="0" height="0" class="hidden">
  <symbol fill="none" xmlns="http://www.w3.org/2000/svg" viewBox="0 0 24 26" id="home">
    <path d="M10.0692 1.06704C11.1853 0.128491 12.8147 0.128491 13.9308 1.06704L22.9308 8.63522C23.6087 9.20524 24 10.0456 24 10.9313V23.5C24 24.6046 23.1046 25.5 22 25.5H16.5C15.3954 25.5 14.5 24.6046 14.5 23.5V16.5H9.5V23.5C9.5 24.6046 8.60457 25.5 7.5 25.5H2C0.895431 25.5 0 24.6046 0 23.5V10.9313C0 10.0456 0.391346 9.20524 1.0692 8.63522L10.0692 1.06704Z" fill="#262626"></path>
  </symbol>
  <symbol fill="none" xmlns="http://www.w3.org/2000/svg" viewBox="0 0 26 21" id="exit">
    <path d="M13 0.942731V8.625L13.0007 9.25621L22.3025 9.255L20.1495 7.10032C19.8167 6.76743 19.7865 6.2466 20.0589 5.87963L20.1497 5.7745C20.4826 5.44172 21.0034 5.41155 21.3704 5.68393L21.4755 5.77472L25.2213 9.52178C25.5538 9.85436 25.5842 10.3746 25.3125 10.7416L25.2219 10.8467L21.4762 14.601C21.1105 14.9676 20.5169 14.9683 20.1503 14.6026C19.8171 14.2701 19.7863 13.7493 20.0582 13.382L20.1488 13.2767L22.29 11.13L13.0007 11.1312L13 19.5625C13 20.1455 12.4735 20.5871 11.8994 20.4857L1.27444 18.6091C0.826512 18.53 0.5 18.1408 0.5 17.6859V2.68752C0.5 2.22839 0.832518 1.83681 1.28558 1.76241L11.9106 0.0176215C12.4813 -0.0761076 13 0.364318 13 0.942731ZM8.62769 9.87502C7.93585 9.87502 7.375 10.4359 7.375 11.1277C7.375 11.8196 7.93585 12.3804 8.62769 12.3804C9.31953 12.3804 9.88037 11.8196 9.88037 11.1277C9.88037 10.4359 9.31953 9.87502 8.62769 9.87502ZM14.25 18.6266L15.2064 18.6268L15.3338 18.6183C15.7919 18.556 16.1447 18.163 16.1439 17.6878L16.135 12.375H14.25V18.6266ZM14.2525 8.00002L14.25 6.4067V1.75002L15.1816 1.75002C15.6556 1.75002 16.0476 2.10192 16.1103 2.55891L16.1191 2.68597L16.1275 8.00002H14.2525Z" fill="#262626"></path>
  </symbol>
  <symbol fill="none" xmlns="http://www.w3.org/2000/svg" viewBox="0 0 16 16" id="git">
    <path fill-rule="evenodd" clip-rule="evenodd" d="M5 3.25001C5 3.44892 4.92099 3.63969 4.78033 3.78034C4.63968 3.92099 4.44892 4.00001 4.25 4.00001C4.05109 4.00001 3.86033 3.92099 3.71967 3.78034C3.57902 3.63969 3.5 3.44892 3.5 3.25001C3.5 3.05109 3.57902 2.86033 3.71967 2.71968C3.86033 2.57902 4.05109 2.50001 4.25 2.50001C4.44892 2.50001 4.63968 2.57902 4.78033 2.71968C4.92099 2.86033 5 3.05109 5 3.25001ZM5 5.37201C5.50042 5.19509 5.92217 4.84696 6.19073 4.38915C6.45929 3.93134 6.55735 3.39333 6.4676 2.87021C6.37785 2.34709 6.10605 1.87253 5.70025 1.53043C5.29445 1.18832 4.78077 1.00069 4.25 1.00069C3.71924 1.00069 3.20556 1.18832 2.79976 1.53043C2.39396 1.87253 2.12216 2.34709 2.03241 2.87021C1.94265 3.39333 2.04072 3.93134 2.30928 4.38915C2.57784 4.84696 2.99959 5.19509 3.5 5.37201V6.25001C3.5 6.84674 3.73706 7.41904 4.15901 7.841C4.58097 8.26295 5.15327 8.50001 5.75 8.50001H7.25V10.628C6.74932 10.8049 6.3273 11.1532 6.05855 11.6112C5.78981 12.0692 5.69164 12.6075 5.78139 13.1309C5.87115 13.6543 6.14306 14.1291 6.54905 14.4714C6.95504 14.8136 7.46897 15.0014 8 15.0014C8.53104 15.0014 9.04497 14.8136 9.45096 14.4714C9.85695 14.1291 10.1289 13.6543 10.2186 13.1309C10.3084 12.6075 10.2102 12.0692 9.94146 11.6112C9.67271 11.1532 9.25069 10.8049 8.75 10.628V8.50001H10.25C10.8467 8.50001 11.419 8.26295 11.841 7.841C12.263 7.41904 12.5 6.84674 12.5 6.25001V5.37201C13.0004 5.19509 13.4222 4.84696 13.6907 4.38915C13.9593 3.93134 14.0574 3.39333 13.9676 2.87021C13.8778 2.34709 13.6061 1.87253 13.2002 1.53043C12.7944 1.18832 12.2808 1.00069 11.75 1.00069C11.2192 1.00069 10.7056 1.18832 10.2998 1.53043C9.89396 1.87253 9.62216 2.34709 9.53241 2.87021C9.44265 3.39333 9.54072 3.93134 9.80928 4.38915C10.0778 4.84696 10.4996 5.19509 11 5.37201V6.25001C11 6.44892 10.921 6.63969 10.7803 6.78034C10.6397 6.92099 10.4489 7.00001 10.25 7.00001H5.75C5.55109 7.00001 5.36033 6.92099 5.21967 6.78034C5.07902 6.63969 5 6.44892 5 6.25001V5.37201ZM8.75 12.75C8.75 12.9489 8.67099 13.1397 8.53033 13.2803C8.38968 13.421 8.19892 13.5 8 13.5C7.80109 13.5 7.61033 13.421 7.46967 13.2803C7.32902 13.1397 7.25 12.9489 7.25 12.75C7.25 12.5511 7.32902 12.3603 7.46967 12.2197C7.61033 12.079 7.80109 12 8 12C8.19892 12 8.38968 12.079 8.53033 12.2197C8.67099 12.3603 8.75 12.5511 8.75 12.75ZM11.75 4.00001C11.9489 4.00001 12.1397 3.92099 12.2803 3.78034C12.421 3.63969 12.5 3.44892 12.5 3.25001C12.5 3.05109 12.421 2.86033 12.2803 2.71968C12.1397 2.57902 11.9489 2.50001 11.75 2.50001C11.5511 2.50001 11.3603 2.57902 11.2197 2.71968C11.079 2.86033 11 3.05109 11 3.25001C11 3.44892 11.079 3.63969 11.2197 3.78034C11.3603 3.92099 11.5511 4.00001 11.75 4.00001Z" fill="#586069"></path>
  </symbol>
  <symbol fill="none" xmlns="http://www.w3.org/2000/svg" viewBox="0 0 16 16" id="star">
    <path fill-rule="evenodd" clip-rule="evenodd" d="M8.00004 0.25C8.14006 0.24991 8.2773 0.289014 8.39624 0.362887C8.51518 0.43676 8.61106 0.542452 8.67304 0.668L10.555 4.483L14.765 5.095C14.9035 5.11511 15.0336 5.17355 15.1405 5.26372C15.2475 5.35388 15.3272 5.47218 15.3704 5.60523C15.4137 5.73829 15.4189 5.8808 15.3854 6.01665C15.352 6.1525 15.2812 6.27628 15.181 6.374L12.135 9.344L12.854 13.536C12.8777 13.6739 12.8624 13.8157 12.8097 13.9454C12.757 14.0751 12.6691 14.1874 12.5559 14.2697C12.4427 14.352 12.3087 14.401 12.1691 14.4111C12.0295 14.4212 11.8899 14.3921 11.766 14.327L8.00004 12.347L4.23404 14.327C4.11023 14.392 3.97071 14.4211 3.83123 14.411C3.69176 14.4009 3.55788 14.352 3.44472 14.2699C3.33157 14.1877 3.24363 14.0755 3.19086 13.946C3.13808 13.8165 3.12255 13.6749 3.14604 13.537L3.86604 9.343L0.818042 6.374C0.717608 6.27632 0.646541 6.15247 0.612894 6.01647C0.579246 5.88047 0.584364 5.73777 0.627666 5.60453C0.670969 5.47129 0.750725 5.35284 0.857898 5.26261C0.96507 5.17238 1.09537 5.11397 1.23404 5.094L5.44404 4.483L7.32704 0.668C7.38902 0.542452 7.48491 0.43676 7.60385 0.362887C7.72279 0.289014 7.86003 0.24991 8.00004 0.25ZM8.00004 2.695L6.61504 5.5C6.56126 5.6089 6.48183 5.70311 6.38359 5.77453C6.28534 5.84595 6.17122 5.89244 6.05104 5.91L2.95404 6.36L5.19404 8.544C5.28119 8.62886 5.3464 8.73365 5.38403 8.84933C5.42166 8.96501 5.43059 9.0881 5.41004 9.208L4.88204 12.292L7.65104 10.836C7.75867 10.7794 7.87845 10.7499 8.00004 10.7499C8.12164 10.7499 8.24141 10.7794 8.34904 10.836L11.119 12.292L10.589 9.208C10.5685 9.0881 10.5774 8.96501 10.615 8.84933C10.6527 8.73365 10.7179 8.62886 10.805 8.544L13.045 6.361L9.94904 5.911C9.82886 5.89344 9.71474 5.84695 9.6165 5.77553C9.51825 5.70411 9.43883 5.6099 9.38504 5.501L8.00004 2.694V2.695Z" fill="#586069"></path>
  </symbol>
  <symbol fill="none" xmlns="http://www.w3.org/2000/svg" viewBox="0 0 10 6" id="arrow">
    <path d="M9.79959 5.26034C9.51774 5.56387 9.04319 5.58144 8.73966 5.29959L5 1.77348L1.26033 5.29959C0.956802 5.58144 0.482254 5.56387 0.200401 5.26034C-0.0814505 4.9568 -0.0638752 4.48225 0.239658 4.2004L4.48966 0.200402C4.77742 -0.0668049 5.22257 -0.0668049 5.51033 0.200402L9.76034 4.2004C10.0639 4.48225 10.0814 4.9568 9.79959 5.26034Z" fill="#212121"></path>
  </symbol>
</svg>